<?xml version="1.0" encoding="UTF-8"?>
<svg id="fig-5" viewBox="0 0 720 380" width="100%" style="display: block; background: rgb(255, 255, 255);" xmlns="http://www.w3.org/2000/svg"><rect width="720" height="380" fill="#FFFFFF"/><g><line x1="64" x2="696" y1="328" y2="328" stroke="#D8DCE3" stroke-width="1"/><line x1="64" x2="696" y1="241.14285714285717" y2="241.14285714285717" stroke="#D8DCE3" stroke-width="1"/><line x1="64" x2="696" y1="154.2857142857143" y2="154.2857142857143" stroke="#D8DCE3" stroke-width="1"/><line x1="64" x2="696" y1="67.42857142857144" y2="67.42857142857144" stroke="#D8DCE3" stroke-width="1"/><line x1="58" x2="696" y1="328" y2="328" stroke="#111318" stroke-width="1.25"/><line x1="58" x2="58" y1="328" y2="24" stroke="#111318" stroke-width="1.25"/><g><line x1="64" x2="64" y1="328" y2="333" stroke="#111318" stroke-width="1.25"/><text x="64" y="346" text-anchor="middle" style="font: 11px &quot;JetBrains Mono&quot;, ui-monospace, monospace; fill: rgb(107, 114, 128);">10</text></g><g><line x1="244.57142857142856" x2="244.57142857142856" y1="328" y2="333" stroke="#111318" stroke-width="1.25"/><text x="244.57142857142856" y="346" text-anchor="middle" style="font: 11px &quot;JetBrains Mono&quot;, ui-monospace, monospace; fill: rgb(107, 114, 128);">20</text></g><g><line x1="425.1428571428571" x2="425.1428571428571" y1="328" y2="333" stroke="#111318" stroke-width="1.25"/><text x="425.1428571428571" y="346" text-anchor="middle" style="font: 11px &quot;JetBrains Mono&quot;, ui-monospace, monospace; fill: rgb(107, 114, 128);">30</text></g><g><line x1="605.7142857142857" x2="605.7142857142857" y1="328" y2="333" stroke="#111318" stroke-width="1.25"/><text x="605.7142857142857" y="346" text-anchor="middle" style="font: 11px &quot;JetBrains Mono&quot;, ui-monospace, monospace; fill: rgb(107, 114, 128);">40</text></g><g><line x1="53" x2="58" y1="328" y2="328" stroke="#111318" stroke-width="1.25"/><text x="49" y="332" text-anchor="end" style="font: 11px &quot;JetBrains Mono&quot;, ui-monospace, monospace; fill: rgb(107, 114, 128);">10</text></g><g><line x1="53" x2="58" y1="241.14285714285717" y2="241.14285714285717" stroke="#111318" stroke-width="1.25"/><text x="49" y="245.14285714285717" text-anchor="end" style="font: 11px &quot;JetBrains Mono&quot;, ui-monospace, monospace; fill: rgb(107, 114, 128);">20</text></g><g><line x1="53" x2="58" y1="154.2857142857143" y2="154.2857142857143" stroke="#111318" stroke-width="1.25"/><text x="49" y="158.2857142857143" text-anchor="end" style="font: 11px &quot;JetBrains Mono&quot;, ui-monospace, monospace; fill: rgb(107, 114, 128);">30</text></g><g><line x1="53" x2="58" y1="67.42857142857144" y2="67.42857142857144" stroke="#111318" stroke-width="1.25"/><text x="49" y="71.42857142857144" text-anchor="end" style="font: 11px &quot;JetBrains Mono&quot;, ui-monospace, monospace; fill: rgb(107, 114, 128);">40</text></g><text x="380" y="368" text-anchor="middle" style="font: 600 12px &quot;Space Grotesk&quot;, system-ui, sans-serif; fill: rgb(17, 19, 24);">moves used by the hand-written greedy solver</text><text transform="translate(14 176) rotate(-90)" text-anchor="middle" style="font: 600 12px &quot;Space Grotesk&quot;, system-ui, sans-serif; fill: rgb(17, 19, 24);">moves used by the learned beam search</text><path fill="none" stroke="#D8DCE3" stroke-width="1.5" stroke-dasharray="5 4" stroke-linejoin="round" stroke-linecap="round" d="M64.00 328.00L696.00 24.00"/><text x="688" y="42" text-anchor="end" style="font: 10px &quot;JetBrains Mono&quot;, ui-monospace, monospace; fill: rgb(107, 114, 128);">equal: above this line is worse</text><g><circle cx="515.4285714285714" cy="258.51428571428573" r="4" fill="#0072B2" stroke="#FFFFFF" stroke-width="1"/><circle cx="605.7142857142857" cy="301.9428571428571" r="4" fill="#0072B2" stroke="#FFFFFF" stroke-width="1"/><circle cx="569.6" cy="293.25714285714287" r="4" fill="#0072B2" stroke="#FFFFFF" stroke-width="1"/><circle cx="461.25714285714287" cy="293.25714285714287" r="4" fill="#0072B2" stroke="#FFFFFF" stroke-width="1"/><circle cx="641.8285714285714" cy="284.57142857142856" r="4" fill="#0072B2" stroke="#FFFFFF" stroke-width="1"/><circle cx="551.5428571428572" cy="284.57142857142856" r="4" fill="#0072B2" stroke="#FFFFFF" stroke-width="1"/><circle cx="623.7714285714286" cy="284.57142857142856" r="4" fill="#0072B2" stroke="#FFFFFF" stroke-width="1"/><circle cx="515.4285714285714" cy="284.57142857142856" r="4" fill="#0072B2" stroke="#FFFFFF" stroke-width="1"/><circle cx="587.6571428571428" cy="275.8857142857143" r="4" fill="#0072B2" stroke="#FFFFFF" stroke-width="1"/><circle cx="587.6571428571428" cy="267.2" r="4" fill="#0072B2" stroke="#FFFFFF" stroke-width="1"/><circle cx="551.5428571428572" cy="284.57142857142856" r="4" fill="#0072B2" stroke="#FFFFFF" stroke-width="1"/><circle cx="551.5428571428572" cy="284.57142857142856" r="4" fill="#0072B2" stroke="#FFFFFF" stroke-width="1"/><circle cx="497.37142857142857" cy="258.51428571428573" r="4" fill="#0072B2" stroke="#FFFFFF" stroke-width="1"/><circle cx="623.7714285714286" cy="275.8857142857143" r="4" fill="#0072B2" stroke="#FFFFFF" stroke-width="1"/><circle cx="641.8285714285714" cy="275.8857142857143" r="4" fill="#0072B2" stroke="#FFFFFF" stroke-width="1"/><circle cx="461.25714285714287" cy="284.57142857142856" r="4" fill="#0072B2" stroke="#FFFFFF" stroke-width="1"/><circle cx="641.8285714285714" cy="258.51428571428573" r="4" fill="#0072B2" stroke="#FFFFFF" stroke-width="1"/><circle cx="587.6571428571428" cy="258.51428571428573" r="4" fill="#0072B2" stroke="#FFFFFF" stroke-width="1"/><circle cx="443.2" cy="267.2" r="4" fill="#0072B2" stroke="#FFFFFF" stroke-width="1"/><circle cx="461.25714285714287" cy="293.25714285714287" r="4" fill="#0072B2" stroke="#FFFFFF" stroke-width="1"/><circle cx="551.5428571428572" cy="284.57142857142856" r="4" fill="#0072B2" stroke="#FFFFFF" stroke-width="1"/><circle cx="623.7714285714286" cy="293.25714285714287" r="4" fill="#0072B2" stroke="#FFFFFF" stroke-width="1"/><circle cx="479.3142857142857" cy="267.2" r="4" fill="#0072B2" stroke="#FFFFFF" stroke-width="1"/><circle cx="569.6" cy="267.2" r="4" fill="#0072B2" stroke="#FFFFFF" stroke-width="1"/><circle cx="461.25714285714287" cy="301.9428571428571" r="4" fill="#0072B2" stroke="#FFFFFF" stroke-width="1"/><circle cx="443.2" cy="275.8857142857143" r="4" fill="#0072B2" stroke="#FFFFFF" stroke-width="1"/><circle cx="407.08571428571423" cy="293.25714285714287" r="4" fill="#0072B2" stroke="#FFFFFF" stroke-width="1"/><circle cx="605.7142857142857" cy="301.9428571428571" r="4" fill="#0072B2" stroke="#FFFFFF" stroke-width="1"/><circle cx="587.6571428571428" cy="275.8857142857143" r="4" fill="#0072B2" stroke="#FFFFFF" stroke-width="1"/><circle cx="497.37142857142857" cy="275.8857142857143" r="4" fill="#0072B2" stroke="#FFFFFF" stroke-width="1"/><circle cx="569.6" cy="267.2" r="4" fill="#0072B2" stroke="#FFFFFF" stroke-width="1"/><circle cx="479.3142857142857" cy="301.9428571428571" r="4" fill="#0072B2" stroke="#FFFFFF" stroke-width="1"/><circle cx="587.6571428571428" cy="249.82857142857142" r="4" fill="#0072B2" stroke="#FFFFFF" stroke-width="1"/><circle cx="461.25714285714287" cy="284.57142857142856" r="4" fill="#0072B2" stroke="#FFFFFF" stroke-width="1"/><circle cx="443.2" cy="267.2" r="4" fill="#0072B2" stroke="#FFFFFF" stroke-width="1"/><circle cx="533.4857142857143" cy="258.51428571428573" r="4" fill="#0072B2" stroke="#FFFFFF" stroke-width="1"/><circle cx="515.4285714285714" cy="293.25714285714287" r="4" fill="#0072B2" stroke="#FFFFFF" stroke-width="1"/><circle cx="389.0285714285714" cy="301.9428571428571" r="4" fill="#0072B2" stroke="#FFFFFF" stroke-width="1"/><circle cx="587.6571428571428" cy="275.8857142857143" r="4" fill="#0072B2" stroke="#FFFFFF" stroke-width="1"/><circle cx="605.7142857142857" cy="275.8857142857143" r="4" fill="#0072B2" stroke="#FFFFFF" stroke-width="1"/></g><text x="515.4285714285714" y="317.056" text-anchor="middle" style="font: 600 13px &quot;Space Grotesk&quot;, system-ui, sans-serif; fill: rgb(0, 114, 178);">all 40/40 below the line</text><g transform="translate(76 46)"><text x="0" y="0" text-anchor="start" style="font: 11px &quot;JetBrains Mono&quot;, ui-monospace, monospace; fill: rgb(17, 19, 24);">greedy  mean 36.3   worst 42</text><text x="0" y="17" text-anchor="start" style="font: 11px &quot;JetBrains Mono&quot;, ui-monospace, monospace; fill: rgb(0, 114, 178);">learned mean 15.6   worst 19   (57% shorter)</text></g></g></svg>
