<?xml version="1.0" encoding="UTF-8"?>
<svg id="fig-15" viewBox="0 0 720 380" width="100%" style="display: block; background: rgb(255, 255, 255);" xmlns="http://www.w3.org/2000/svg"><rect width="720" height="380" fill="#FFFFFF"/><g><line x1="64" x2="676" y1="301.33333333333337" y2="301.33333333333337" stroke="#D8DCE3" stroke-width="1"/><line x1="64" x2="676" y1="248.00000000000003" y2="248.00000000000003" stroke="#D8DCE3" stroke-width="1"/><line x1="64" x2="676" y1="194.6666666666667" y2="194.6666666666667" stroke="#D8DCE3" stroke-width="1"/><line x1="64" x2="676" y1="141.33333333333331" y2="141.33333333333331" stroke="#D8DCE3" stroke-width="1"/><line x1="64" x2="676" y1="88.00000000000003" y2="88.00000000000003" stroke="#D8DCE3" stroke-width="1"/><line x1="64" x2="676" y1="34.666666666666686" y2="34.666666666666686" stroke="#D8DCE3" stroke-width="1"/><line x1="58" x2="676" y1="328" y2="328" stroke="#111318" stroke-width="1.25"/><line x1="58" x2="58" y1="328" y2="24" stroke="#111318" stroke-width="1.25"/><g><line x1="117.68421052631577" x2="117.68421052631577" y1="328" y2="333" stroke="#111318" stroke-width="1.25"/><text x="117.68421052631577" y="346" text-anchor="middle" style="font: 11px &quot;JetBrains Mono&quot;, ui-monospace, monospace; fill: rgb(107, 114, 128);">0.5</text></g><g><line x1="225.0526315789473" x2="225.0526315789473" y1="328" y2="333" stroke="#111318" stroke-width="1.25"/><text x="225.0526315789473" y="346" text-anchor="middle" style="font: 11px &quot;JetBrains Mono&quot;, ui-monospace, monospace; fill: rgb(107, 114, 128);">0.6</text></g><g><line x1="332.42105263157885" x2="332.42105263157885" y1="328" y2="333" stroke="#111318" stroke-width="1.25"/><text x="332.42105263157885" y="346" text-anchor="middle" style="font: 11px &quot;JetBrains Mono&quot;, ui-monospace, monospace; fill: rgb(107, 114, 128);">0.7</text></g><g><line x1="439.7894736842105" x2="439.7894736842105" y1="328" y2="333" stroke="#111318" stroke-width="1.25"/><text x="439.7894736842105" y="346" text-anchor="middle" style="font: 11px &quot;JetBrains Mono&quot;, ui-monospace, monospace; fill: rgb(107, 114, 128);">0.8</text></g><g><line x1="547.1578947368421" x2="547.1578947368421" y1="328" y2="333" stroke="#111318" stroke-width="1.25"/><text x="547.1578947368421" y="346" text-anchor="middle" style="font: 11px &quot;JetBrains Mono&quot;, ui-monospace, monospace; fill: rgb(107, 114, 128);">0.9</text></g><g><line x1="654.5263157894736" x2="654.5263157894736" y1="328" y2="333" stroke="#111318" stroke-width="1.25"/><text x="654.5263157894736" y="346" text-anchor="middle" style="font: 11px &quot;JetBrains Mono&quot;, ui-monospace, monospace; fill: rgb(107, 114, 128);">1.0</text></g><g><line x1="53" x2="58" y1="301.33333333333337" y2="301.33333333333337" stroke="#111318" stroke-width="1.25"/><text x="49" y="305.33333333333337" text-anchor="end" style="font: 11px &quot;JetBrains Mono&quot;, ui-monospace, monospace; fill: rgb(107, 114, 128);">0.5</text></g><g><line x1="53" x2="58" y1="248.00000000000003" y2="248.00000000000003" stroke="#111318" stroke-width="1.25"/><text x="49" y="252.00000000000003" text-anchor="end" style="font: 11px &quot;JetBrains Mono&quot;, ui-monospace, monospace; fill: rgb(107, 114, 128);">0.6</text></g><g><line x1="53" x2="58" y1="194.6666666666667" y2="194.6666666666667" stroke="#111318" stroke-width="1.25"/><text x="49" y="198.6666666666667" text-anchor="end" style="font: 11px &quot;JetBrains Mono&quot;, ui-monospace, monospace; fill: rgb(107, 114, 128);">0.7</text></g><g><line x1="53" x2="58" y1="141.33333333333331" y2="141.33333333333331" stroke="#111318" stroke-width="1.25"/><text x="49" y="145.33333333333331" text-anchor="end" style="font: 11px &quot;JetBrains Mono&quot;, ui-monospace, monospace; fill: rgb(107, 114, 128);">0.8</text></g><g><line x1="53" x2="58" y1="88.00000000000003" y2="88.00000000000003" stroke="#111318" stroke-width="1.25"/><text x="49" y="92.00000000000003" text-anchor="end" style="font: 11px &quot;JetBrains Mono&quot;, ui-monospace, monospace; fill: rgb(107, 114, 128);">0.9</text></g><g><line x1="53" x2="58" y1="34.666666666666686" y2="34.666666666666686" stroke="#111318" stroke-width="1.25"/><text x="49" y="38.666666666666686" text-anchor="end" style="font: 11px &quot;JetBrains Mono&quot;, ui-monospace, monospace; fill: rgb(107, 114, 128);">1.0</text></g><text x="370" y="368" text-anchor="middle" style="font: 600 12px &quot;Space Grotesk&quot;, system-ui, sans-serif; fill: rgb(17, 19, 24);">predicted   Φ( gap / (spread · √2) )   — no fitted parameters</text><text transform="translate(14 176) rotate(-90)" text-anchor="middle" style="font: 600 12px &quot;Space Grotesk&quot;, system-ui, sans-serif; fill: rgb(17, 19, 24);">measured ordering accuracy</text><path fill="none" stroke="#6B7280" stroke-width="1.5" stroke-dasharray="5 4" stroke-linejoin="round" stroke-linecap="round" d="M64.00 328.00L676.00 24.00"/><g><circle cx="106.79752989898535" cy="300.5866666666667" r="2.6" fill="#D8DCE3" stroke="#FFFFFF" stroke-width="1"/><circle cx="135.2790965854585" cy="299.91999999999996" r="2.6" fill="#D8DCE3" stroke="#FFFFFF" stroke-width="1"/><circle cx="110.0168007801596" cy="302.9066666666667" r="2.6" fill="#D8DCE3" stroke="#FFFFFF" stroke-width="1"/><circle cx="121.70635963490318" cy="301.2266666666667" r="2.6" fill="#D8DCE3" stroke="#FFFFFF" stroke-width="1"/><circle cx="104.11653308808863" cy="290.4533333333334" r="2.6" fill="#D8DCE3" stroke="#FFFFFF" stroke-width="1"/><circle cx="125.85013669487577" cy="301.36" r="2.6" fill="#D8DCE3" stroke="#FFFFFF" stroke-width="1"/><circle cx="119.59787297646096" cy="296.4266666666667" r="2.6" fill="#D8DCE3" stroke="#FFFFFF" stroke-width="1"/><circle cx="107.97428567453719" cy="310.02666666666664" r="2.6" fill="#D8DCE3" stroke="#FFFFFF" stroke-width="1"/><circle cx="123.32219768678293" cy="296.02666666666664" r="2.6" fill="#D8DCE3" stroke="#FFFFFF" stroke-width="1"/><circle cx="121.22736199295706" cy="296.85333333333335" r="2.6" fill="#D8DCE3" stroke="#FFFFFF" stroke-width="1"/><circle cx="108.33479181650979" cy="301.6" r="2.6" fill="#D8DCE3" stroke="#FFFFFF" stroke-width="1"/><circle cx="125.16763247469117" cy="310.85333333333335" r="2.6" fill="#D8DCE3" stroke="#FFFFFF" stroke-width="1"/><circle cx="111.82990967517259" cy="307.8933333333333" r="2.6" fill="#D8DCE3" stroke="#FFFFFF" stroke-width="1"/><circle cx="70.48260245558636" cy="296.13551456085395" r="2.6" fill="#D8DCE3" stroke="#FFFFFF" stroke-width="1"/><circle cx="123.45850572434216" cy="298.64" r="2.6" fill="#D8DCE3" stroke="#FFFFFF" stroke-width="1"/><circle cx="105.05780361827095" cy="300.61333333333334" r="2.6" fill="#D8DCE3" stroke="#FFFFFF" stroke-width="1"/><circle cx="128.00318178931752" cy="306.5333333333333" r="2.6" fill="#D8DCE3" stroke="#FFFFFF" stroke-width="1"/><circle cx="113.03399678534579" cy="298.74666666666667" r="2.6" fill="#D8DCE3" stroke="#FFFFFF" stroke-width="1"/><circle cx="131.78702798819373" cy="309.09333333333336" r="2.6" fill="#D8DCE3" stroke="#FFFFFF" stroke-width="1"/><circle cx="118.34951305227429" cy="301.7866666666667" r="2.6" fill="#D8DCE3" stroke="#FFFFFF" stroke-width="1"/><circle cx="110.60622328090069" cy="297.04" r="2.6" fill="#D8DCE3" stroke="#FFFFFF" stroke-width="1"/><circle cx="100.91704986673662" cy="304.9066666666667" r="2.6" fill="#D8DCE3" stroke="#FFFFFF" stroke-width="1"/><circle cx="129.0536680140085" cy="293.2266666666667" r="2.6" fill="#D8DCE3" stroke="#FFFFFF" stroke-width="1"/><circle cx="117.33634491106895" cy="308.18666666666667" r="2.6" fill="#D8DCE3" stroke="#FFFFFF" stroke-width="1"/><circle cx="126.44363341781775" cy="293.81333333333333" r="2.6" fill="#D8DCE3" stroke="#FFFFFF" stroke-width="1"/><circle cx="107.11876494500054" cy="308.64" r="2.6" fill="#D8DCE3" stroke="#FFFFFF" stroke-width="1"/><circle cx="121.57330973760311" cy="299.6" r="2.6" fill="#D8DCE3" stroke="#FFFFFF" stroke-width="1"/><circle cx="112.72103734793444" cy="282.2133333333333" r="2.6" fill="#D8DCE3" stroke="#FFFFFF" stroke-width="1"/><circle cx="106.96465056649151" cy="301.8933333333333" r="2.6" fill="#D8DCE3" stroke="#FFFFFF" stroke-width="1"/><circle cx="134.36016866261372" cy="304.4266666666667" r="2.6" fill="#D8DCE3" stroke="#FFFFFF" stroke-width="1"/><circle cx="104.8763552339161" cy="302.0266666666667" r="2.6" fill="#D8DCE3" stroke="#FFFFFF" stroke-width="1"/><circle cx="129.08621612194872" cy="295.8133333333334" r="2.6" fill="#D8DCE3" stroke="#FFFFFF" stroke-width="1"/><circle cx="113.12691262869694" cy="302.85333333333335" r="2.6" fill="#D8DCE3" stroke="#FFFFFF" stroke-width="1"/><circle cx="118.22226232343729" cy="297.06666666666666" r="2.6" fill="#D8DCE3" stroke="#FFFFFF" stroke-width="1"/></g><g><circle cx="454.079017732717" cy="145.89333333333337" r="3" fill="#CC79A7" stroke="#FFFFFF" stroke-width="1"/><circle cx="347.14541823272964" cy="197.16000000000003" r="3" fill="#CC79A7" stroke="#FFFFFF" stroke-width="1"/><circle cx="315.3406507811817" cy="218.10666666666668" r="3" fill="#CC79A7" stroke="#FFFFFF" stroke-width="1"/><circle cx="334.40277987193406" cy="209.04" r="3" fill="#CC79A7" stroke="#FFFFFF" stroke-width="1"/><circle cx="307.52351977085686" cy="199.42666666666668" r="3" fill="#CC79A7" stroke="#FFFFFF" stroke-width="1"/><circle cx="616.5379573830053" cy="77.54666666666671" r="3" fill="#CC79A7" stroke="#FFFFFF" stroke-width="1"/><circle cx="517.5593182716634" cy="117.98666666666671" r="3" fill="#CC79A7" stroke="#FFFFFF" stroke-width="1"/><circle cx="438.07976965345387" cy="159.21333333333334" r="3" fill="#CC79A7" stroke="#FFFFFF" stroke-width="1"/><circle cx="414.54555771044903" cy="175.77333333333334" r="3" fill="#CC79A7" stroke="#FFFFFF" stroke-width="1"/><circle cx="412.53831682599855" cy="185.4266666666667" r="3" fill="#CC79A7" stroke="#FFFFFF" stroke-width="1"/><circle cx="345.364931629488" cy="203.12" r="3" fill="#CC79A7" stroke="#FFFFFF" stroke-width="1"/><circle cx="295.3127234211735" cy="226.84000000000003" r="3" fill="#CC79A7" stroke="#FFFFFF" stroke-width="1"/><circle cx="282.2834046676174" cy="224.53333333333336" r="3" fill="#CC79A7" stroke="#FFFFFF" stroke-width="1"/><circle cx="255.96299235950877" cy="228.97333333333336" r="3" fill="#CC79A7" stroke="#FFFFFF" stroke-width="1"/><circle cx="246.3850813880598" cy="240.8533333333333" r="3" fill="#CC79A7" stroke="#FFFFFF" stroke-width="1"/><circle cx="265.0587092884383" cy="230.14666666666668" r="3" fill="#CC79A7" stroke="#FFFFFF" stroke-width="1"/><circle cx="231.8860551451437" cy="247.45333333333332" r="3" fill="#CC79A7" stroke="#FFFFFF" stroke-width="1"/><circle cx="236.72699193145607" cy="232.89333333333335" r="3" fill="#CC79A7" stroke="#FFFFFF" stroke-width="1"/><circle cx="253.58227237168705" cy="200.2079127508992" r="3" fill="#CC79A7" stroke="#FFFFFF" stroke-width="1"/><circle cx="364.8106358535706" cy="189.89333333333332" r="3" fill="#CC79A7" stroke="#FFFFFF" stroke-width="1"/><circle cx="328.71741382735183" cy="205.85333333333335" r="3" fill="#CC79A7" stroke="#FFFFFF" stroke-width="1"/><circle cx="338.90488033646795" cy="191.3466666666667" r="3" fill="#CC79A7" stroke="#FFFFFF" stroke-width="1"/><circle cx="337.5301243690922" cy="196.2666666666667" r="3" fill="#CC79A7" stroke="#FFFFFF" stroke-width="1"/><circle cx="350.5456455328678" cy="195.85333333333332" r="3" fill="#CC79A7" stroke="#FFFFFF" stroke-width="1"/><circle cx="346.30512479723546" cy="192.2" r="3" fill="#CC79A7" stroke="#FFFFFF" stroke-width="1"/><circle cx="335.6386031543065" cy="198.2533333333334" r="3" fill="#CC79A7" stroke="#FFFFFF" stroke-width="1"/><circle cx="374.85116545966713" cy="179.96000000000004" r="3" fill="#CC79A7" stroke="#FFFFFF" stroke-width="1"/><circle cx="379.4624999478211" cy="165.26186332521178" r="3" fill="#CC79A7" stroke="#FFFFFF" stroke-width="1"/><circle cx="366.78045222246914" cy="194.8933333333334" r="3" fill="#CC79A7" stroke="#FFFFFF" stroke-width="1"/><circle cx="298.08646725577063" cy="217.6533333333333" r="3" fill="#CC79A7" stroke="#FFFFFF" stroke-width="1"/><circle cx="272.07319608056906" cy="241.65333333333336" r="3" fill="#CC79A7" stroke="#FFFFFF" stroke-width="1"/><circle cx="246.98267492104958" cy="232.16" r="3" fill="#CC79A7" stroke="#FFFFFF" stroke-width="1"/><circle cx="256.85396459404956" cy="235.20000000000002" r="3" fill="#CC79A7" stroke="#FFFFFF" stroke-width="1"/><circle cx="245.96726488286566" cy="230.22666666666666" r="3" fill="#CC79A7" stroke="#FFFFFF" stroke-width="1"/><circle cx="299.1518830618371" cy="232.57333333333332" r="3" fill="#CC79A7" stroke="#FFFFFF" stroke-width="1"/><circle cx="351.03086501233025" cy="219.49333333333334" r="3" fill="#CC79A7" stroke="#FFFFFF" stroke-width="1"/><circle cx="523.639272434848" cy="112.66666666666669" r="3" fill="#CC79A7" stroke="#FFFFFF" stroke-width="1"/><circle cx="437.2862002139812" cy="137.0266666666667" r="3" fill="#CC79A7" stroke="#FFFFFF" stroke-width="1"/><circle cx="387.97039371471226" cy="171.37333333333336" r="3" fill="#CC79A7" stroke="#FFFFFF" stroke-width="1"/><circle cx="365.5619266613752" cy="187.26666666666668" r="3" fill="#CC79A7" stroke="#FFFFFF" stroke-width="1"/><circle cx="344.42631243991536" cy="194.33333333333334" r="3" fill="#CC79A7" stroke="#FFFFFF" stroke-width="1"/><circle cx="325.9520466068742" cy="194.65333333333334" r="3" fill="#CC79A7" stroke="#FFFFFF" stroke-width="1"/><circle cx="345.4118679731447" cy="188.84" r="3" fill="#CC79A7" stroke="#FFFFFF" stroke-width="1"/><circle cx="345.7382164163517" cy="190.72" r="3" fill="#CC79A7" stroke="#FFFFFF" stroke-width="1"/><circle cx="359.87873415659305" cy="197.38666666666666" r="3" fill="#CC79A7" stroke="#FFFFFF" stroke-width="1"/><circle cx="295.7871793866818" cy="217.41333333333336" r="3" fill="#CC79A7" stroke="#FFFFFF" stroke-width="1"/><circle cx="291.43278293153924" cy="218.29333333333335" r="3" fill="#CC79A7" stroke="#FFFFFF" stroke-width="1"/><circle cx="310.7170778669597" cy="216.52000000000004" r="3" fill="#CC79A7" stroke="#FFFFFF" stroke-width="1"/><circle cx="335.4278337681457" cy="199.38666666666666" r="3" fill="#CC79A7" stroke="#FFFFFF" stroke-width="1"/><circle cx="333.196168256346" cy="209.18666666666667" r="3" fill="#CC79A7" stroke="#FFFFFF" stroke-width="1"/><circle cx="551.9935041283745" cy="101.65333333333331" r="3" fill="#CC79A7" stroke="#FFFFFF" stroke-width="1"/><circle cx="462.8800758283675" cy="140.61333333333337" r="3" fill="#CC79A7" stroke="#FFFFFF" stroke-width="1"/><circle cx="405.44480450756896" cy="160.88" r="3" fill="#CC79A7" stroke="#FFFFFF" stroke-width="1"/><circle cx="400.37258507783747" cy="177.01333333333338" r="3" fill="#CC79A7" stroke="#FFFFFF" stroke-width="1"/><circle cx="399.339511818848" cy="171.2266666666667" r="3" fill="#CC79A7" stroke="#FFFFFF" stroke-width="1"/><circle cx="383.95699858607435" cy="185.16000000000005" r="3" fill="#CC79A7" stroke="#FFFFFF" stroke-width="1"/><circle cx="408.17760603055274" cy="167.3866666666667" r="3" fill="#CC79A7" stroke="#FFFFFF" stroke-width="1"/><circle cx="324.5012119630447" cy="206.0266666666667" r="3" fill="#CC79A7" stroke="#FFFFFF" stroke-width="1"/><circle cx="240.86199031044802" cy="238.29333333333335" r="3" fill="#CC79A7" stroke="#FFFFFF" stroke-width="1"/><circle cx="237.115858556409" cy="250.36" r="3" fill="#CC79A7" stroke="#FFFFFF" stroke-width="1"/><circle cx="221.76815827952254" cy="256.93333333333334" r="3" fill="#CC79A7" stroke="#FFFFFF" stroke-width="1"/><circle cx="241.88032588760703" cy="243" r="3" fill="#CC79A7" stroke="#FFFFFF" stroke-width="1"/><circle cx="516.3483858238416" cy="122.53333333333336" r="3" fill="#CC79A7" stroke="#FFFFFF" stroke-width="1"/><circle cx="423.53893583270667" cy="161.10666666666663" r="3" fill="#CC79A7" stroke="#FFFFFF" stroke-width="1"/><circle cx="316.8658244147213" cy="201.44" r="3" fill="#CC79A7" stroke="#FFFFFF" stroke-width="1"/><circle cx="281.8018032161797" cy="231.5333333333333" r="3" fill="#CC79A7" stroke="#FFFFFF" stroke-width="1"/><circle cx="254.98640621776562" cy="235.46666666666664" r="3" fill="#CC79A7" stroke="#FFFFFF" stroke-width="1"/><circle cx="275.71847539339905" cy="227.9733333333333" r="3" fill="#CC79A7" stroke="#FFFFFF" stroke-width="1"/><circle cx="585.4302450002912" cy="93.85333333333338" r="3" fill="#CC79A7" stroke="#FFFFFF" stroke-width="1"/><circle cx="512.5346695156786" cy="121.26666666666674" r="3" fill="#CC79A7" stroke="#FFFFFF" stroke-width="1"/><circle cx="435.44765638263647" cy="151.36000000000007" r="3" fill="#CC79A7" stroke="#FFFFFF" stroke-width="1"/><circle cx="359.6564668636442" cy="189.34666666666666" r="3" fill="#CC79A7" stroke="#FFFFFF" stroke-width="1"/><circle cx="326.0927710158729" cy="206.32" r="3" fill="#CC79A7" stroke="#FFFFFF" stroke-width="1"/><circle cx="319.1704562584302" cy="212.51999999999998" r="3" fill="#CC79A7" stroke="#FFFFFF" stroke-width="1"/><circle cx="654.5263157891159" cy="40.34666666666669" r="3" fill="#CC79A7" stroke="#FFFFFF" stroke-width="1"/><circle cx="652.8519156536979" cy="53.960000000000036" r="3" fill="#CC79A7" stroke="#FFFFFF" stroke-width="1"/><circle cx="613.117182580292" cy="74.50666666666669" r="3" fill="#CC79A7" stroke="#FFFFFF" stroke-width="1"/><circle cx="516.3705185873741" cy="120.12" r="3" fill="#CC79A7" stroke="#FFFFFF" stroke-width="1"/><circle cx="429.5183072348443" cy="163.10666666666665" r="3" fill="#CC79A7" stroke="#FFFFFF" stroke-width="1"/><circle cx="374.9611641215182" cy="187.79999999999998" r="3" fill="#CC79A7" stroke="#FFFFFF" stroke-width="1"/></g><g><circle cx="654.5263157894265" cy="34.666666666666686" r="3.4" fill="#0072B2" stroke="#FFFFFF" stroke-width="1"/><circle cx="652.2122948444672" cy="35.626666666666665" r="3.4" fill="#0072B2" stroke="#FFFFFF" stroke-width="1"/><circle cx="602.883051665351" cy="57.92000000000007" r="3.4" fill="#0072B2" stroke="#FFFFFF" stroke-width="1"/><circle cx="546.495457388377" cy="88.53333333333336" r="3.4" fill="#0072B2" stroke="#FFFFFF" stroke-width="1"/><circle cx="538.4846685206242" cy="99.91999999999999" r="3.4" fill="#0072B2" stroke="#FFFFFF" stroke-width="1"/><circle cx="654.5263154445739" cy="34.666666666666686" r="3.4" fill="#0072B2" stroke="#FFFFFF" stroke-width="1"/><circle cx="649.6377476359343" cy="36.34666666666669" r="3.4" fill="#0072B2" stroke="#FFFFFF" stroke-width="1"/><circle cx="596.5302817961805" cy="62.453333333333376" r="3.4" fill="#0072B2" stroke="#FFFFFF" stroke-width="1"/><circle cx="548.1533955668415" cy="88.74666666666673" r="3.4" fill="#0072B2" stroke="#FFFFFF" stroke-width="1"/><circle cx="547.9980667300226" cy="102.13333333333333" r="3.4" fill="#0072B2" stroke="#FFFFFF" stroke-width="1"/><circle cx="654.5263157894736" cy="34.666666666666686" r="3.4" fill="#0072B2" stroke="#FFFFFF" stroke-width="1"/><circle cx="653.891506500967" cy="34.693333333333385" r="3.4" fill="#0072B2" stroke="#FFFFFF" stroke-width="1"/><circle cx="619.1976963644736" cy="52.986666666666736" r="3.4" fill="#0072B2" stroke="#FFFFFF" stroke-width="1"/><circle cx="566.1619452309094" cy="80.13333333333338" r="3.4" fill="#0072B2" stroke="#FFFFFF" stroke-width="1"/><circle cx="552.9375731776149" cy="90.37333333333339" r="3.4" fill="#0072B2" stroke="#FFFFFF" stroke-width="1"/><circle cx="483.8217694399076" cy="99.82666666666665" r="3.4" fill="#0072B2" stroke="#FFFFFF" stroke-width="1"/><circle cx="267.32585710245814" cy="225.64" r="3.4" fill="#0072B2" stroke="#FFFFFF" stroke-width="1"/><circle cx="242.90137709138713" cy="237.66666666666669" r="3.4" fill="#0072B2" stroke="#FFFFFF" stroke-width="1"/><circle cx="231.0159177670853" cy="251.2266666666667" r="3.4" fill="#0072B2" stroke="#FFFFFF" stroke-width="1"/><circle cx="178.62875259010835" cy="263.68" r="3.4" fill="#0072B2" stroke="#FFFFFF" stroke-width="1"/><circle cx="180.31771943072673" cy="266.96000000000004" r="3.4" fill="#0072B2" stroke="#FFFFFF" stroke-width="1"/><circle cx="170.72494170661065" cy="258.96000000000004" r="3.4" fill="#0072B2" stroke="#FFFFFF" stroke-width="1"/><circle cx="108.38691311434414" cy="286.5288316510036" r="3.4" fill="#0072B2" stroke="#FFFFFF" stroke-width="1"/><circle cx="654.5263157894736" cy="34.666666666666686" r="3.4" fill="#0072B2" stroke="#FFFFFF" stroke-width="1"/><circle cx="654.5263157894736" cy="34.666666666666686" r="3.4" fill="#0072B2" stroke="#FFFFFF" stroke-width="1"/><circle cx="654.5263157894734" cy="34.666666666666686" r="3.4" fill="#0072B2" stroke="#FFFFFF" stroke-width="1"/><circle cx="654.4669701152878" cy="34.879999999999995" r="3.4" fill="#0072B2" stroke="#FFFFFF" stroke-width="1"/><circle cx="640.9614340743907" cy="46.50666666666666" r="3.4" fill="#0072B2" stroke="#FFFFFF" stroke-width="1"/><circle cx="582.7476756412616" cy="68.40000000000003" r="3.4" fill="#0072B2" stroke="#FFFFFF" stroke-width="1"/><circle cx="500.8118006970939" cy="104.80000000000001" r="3.4" fill="#0072B2" stroke="#FFFFFF" stroke-width="1"/><circle cx="426.90342890141676" cy="119.30666666666667" r="3.4" fill="#0072B2" stroke="#FFFFFF" stroke-width="1"/><circle cx="406.9026236684098" cy="155.79440770391" r="3.4" fill="#0072B2" stroke="#FFFFFF" stroke-width="1"/><circle cx="654.5263157894736" cy="34.666666666666686" r="3.4" fill="#0072B2" stroke="#FFFFFF" stroke-width="1"/><circle cx="654.5263157894736" cy="34.666666666666686" r="3.4" fill="#0072B2" stroke="#FFFFFF" stroke-width="1"/><circle cx="654.5263157894718" cy="34.666666666666686" r="3.4" fill="#0072B2" stroke="#FFFFFF" stroke-width="1"/><circle cx="654.3409862433366" cy="35.65333333333342" r="3.4" fill="#0072B2" stroke="#FFFFFF" stroke-width="1"/><circle cx="632.3334397988737" cy="46.21333333333331" r="3.4" fill="#0072B2" stroke="#FFFFFF" stroke-width="1"/><circle cx="556.3979201077279" cy="79.17333333333337" r="3.4" fill="#0072B2" stroke="#FFFFFF" stroke-width="1"/><circle cx="477.9788013864155" cy="112.85333333333335" r="3.4" fill="#0072B2" stroke="#FFFFFF" stroke-width="1"/><circle cx="416.2963665729119" cy="133.04000000000005" r="3.4" fill="#0072B2" stroke="#FFFFFF" stroke-width="1"/><circle cx="421.2683335337413" cy="162.24527207332642" r="3.4" fill="#0072B2" stroke="#FFFFFF" stroke-width="1"/><circle cx="654.5263157894736" cy="34.666666666666686" r="3.4" fill="#0072B2" stroke="#FFFFFF" stroke-width="1"/><circle cx="654.5263157894734" cy="34.666666666666686" r="3.4" fill="#0072B2" stroke="#FFFFFF" stroke-width="1"/><circle cx="654.3648151710782" cy="35.09333333333342" r="3.4" fill="#0072B2" stroke="#FFFFFF" stroke-width="1"/><circle cx="628.3011035382467" cy="50.80000000000007" r="3.4" fill="#0072B2" stroke="#FFFFFF" stroke-width="1"/><circle cx="526.9671765567791" cy="93.25333333333339" r="3.4" fill="#0072B2" stroke="#FFFFFF" stroke-width="1"/><circle cx="456.7618969541198" cy="125.94666666666672" r="3.4" fill="#0072B2" stroke="#FFFFFF" stroke-width="1"/><circle cx="370.9757563579767" cy="155.5466666666667" r="3.4" fill="#0072B2" stroke="#FFFFFF" stroke-width="1"/><circle cx="276.1950239867542" cy="179.20000000000002" r="3.4" fill="#0072B2" stroke="#FFFFFF" stroke-width="1"/><circle cx="654.5263157894736" cy="34.666666666666686" r="3.4" fill="#0072B2" stroke="#FFFFFF" stroke-width="1"/><circle cx="654.5263157894734" cy="34.666666666666686" r="3.4" fill="#0072B2" stroke="#FFFFFF" stroke-width="1"/><circle cx="654.4312174873634" cy="34.85333333333335" r="3.4" fill="#0072B2" stroke="#FFFFFF" stroke-width="1"/><circle cx="636.4307359999256" cy="44.47999999999996" r="3.4" fill="#0072B2" stroke="#FFFFFF" stroke-width="1"/><circle cx="576.086946926381" cy="73.97333333333336" r="3.4" fill="#0072B2" stroke="#FFFFFF" stroke-width="1"/><circle cx="523.8289120400923" cy="99.89333333333335" r="3.4" fill="#0072B2" stroke="#FFFFFF" stroke-width="1"/><circle cx="484.51029645125595" cy="117.62666666666667" r="3.4" fill="#0072B2" stroke="#FFFFFF" stroke-width="1"/><circle cx="354.22933175370815" cy="152.93333333333334" r="3.4" fill="#0072B2" stroke="#FFFFFF" stroke-width="1"/><circle cx="654.5263157894736" cy="34.666666666666686" r="3.4" fill="#0072B2" stroke="#FFFFFF" stroke-width="1"/><circle cx="654.5263157894736" cy="34.666666666666686" r="3.4" fill="#0072B2" stroke="#FFFFFF" stroke-width="1"/><circle cx="654.5201305989908" cy="34.666666666666686" r="3.4" fill="#0072B2" stroke="#FFFFFF" stroke-width="1"/><circle cx="646.104651309417" cy="40.480000000000075" r="3.4" fill="#0072B2" stroke="#FFFFFF" stroke-width="1"/><circle cx="599.190473452108" cy="66.02666666666664" r="3.4" fill="#0072B2" stroke="#FFFFFF" stroke-width="1"/><circle cx="548.7379380317518" cy="90.80000000000001" r="3.4" fill="#0072B2" stroke="#FFFFFF" stroke-width="1"/><circle cx="489.61522320131616" cy="102.10666666666668" r="3.4" fill="#0072B2" stroke="#FFFFFF" stroke-width="1"/><circle cx="390.68798516114833" cy="161.44000000000005" r="3.4" fill="#0072B2" stroke="#FFFFFF" stroke-width="1"/><circle cx="654.5263157894736" cy="34.666666666666686" r="3.4" fill="#0072B2" stroke="#FFFFFF" stroke-width="1"/><circle cx="654.5263152327935" cy="34.666666666666686" r="3.4" fill="#0072B2" stroke="#FFFFFF" stroke-width="1"/><circle cx="651.6489850168434" cy="35.89333333333332" r="3.4" fill="#0072B2" stroke="#FFFFFF" stroke-width="1"/><circle cx="612.056734045686" cy="61.41333333333341" r="3.4" fill="#0072B2" stroke="#FFFFFF" stroke-width="1"/><circle cx="564.3492130603211" cy="79.28000000000003" r="3.4" fill="#0072B2" stroke="#FFFFFF" stroke-width="1"/><circle cx="536.3689031143751" cy="99.41333333333336" r="3.4" fill="#0072B2" stroke="#FFFFFF" stroke-width="1"/><circle cx="654.5263157894736" cy="34.666666666666686" r="3.4" fill="#0072B2" stroke="#FFFFFF" stroke-width="1"/><circle cx="654.5259404668003" cy="34.666666666666686" r="3.4" fill="#0072B2" stroke="#FFFFFF" stroke-width="1"/><circle cx="645.8058813017317" cy="39.44" r="3.4" fill="#0072B2" stroke="#FFFFFF" stroke-width="1"/><circle cx="593.960946362004" cy="69.36000000000007" r="3.4" fill="#0072B2" stroke="#FFFFFF" stroke-width="1"/><circle cx="550.1817751947667" cy="84.80000000000001" r="3.4" fill="#0072B2" stroke="#FFFFFF" stroke-width="1"/><circle cx="520.7781604172615" cy="102.13333333333333" r="3.4" fill="#0072B2" stroke="#FFFFFF" stroke-width="1"/><circle cx="654.5263157894736" cy="34.666666666666686" r="3.4" fill="#0072B2" stroke="#FFFFFF" stroke-width="1"/><circle cx="654.5253012480207" cy="34.666666666666686" r="3.4" fill="#0072B2" stroke="#FFFFFF" stroke-width="1"/><circle cx="641.0099322038533" cy="41.60000000000008" r="3.4" fill="#0072B2" stroke="#FFFFFF" stroke-width="1"/><circle cx="585.904657122746" cy="73.33333333333337" r="3.4" fill="#0072B2" stroke="#FFFFFF" stroke-width="1"/><circle cx="545.3262853704111" cy="88.82666666666671" r="3.4" fill="#0072B2" stroke="#FFFFFF" stroke-width="1"/><circle cx="523.9017335919473" cy="110.85333333333335" r="3.4" fill="#0072B2" stroke="#FFFFFF" stroke-width="1"/><circle cx="654.5263157894736" cy="34.666666666666686" r="3.4" fill="#0072B2" stroke="#FFFFFF" stroke-width="1"/><circle cx="654.28019854528" cy="34.666666666666686" r="3.4" fill="#0072B2" stroke="#FFFFFF" stroke-width="1"/><circle cx="626.9973884957784" cy="48.98666666666668" r="3.4" fill="#0072B2" stroke="#FFFFFF" stroke-width="1"/><circle cx="569.8729103813687" cy="78.00000000000006" r="3.4" fill="#0072B2" stroke="#FFFFFF" stroke-width="1"/><circle cx="568.866696164208" cy="84.08000000000001" r="3.4" fill="#0072B2" stroke="#FFFFFF" stroke-width="1"/><circle cx="654.5263155138202" cy="34.666666666666686" r="3.4" fill="#0072B2" stroke="#FFFFFF" stroke-width="1"/><circle cx="650.6237194987391" cy="36.29333333333335" r="3.4" fill="#0072B2" stroke="#FFFFFF" stroke-width="1"/><circle cx="602.8913584031036" cy="61.25333333333333" r="3.4" fill="#0072B2" stroke="#FFFFFF" stroke-width="1"/><circle cx="547.3851706581457" cy="88.80000000000007" r="3.4" fill="#0072B2" stroke="#FFFFFF" stroke-width="1"/><circle cx="536.5869213074848" cy="99.97333333333336" r="3.4" fill="#0072B2" stroke="#FFFFFF" stroke-width="1"/><circle cx="654.5263157383471" cy="34.666666666666686" r="3.4" fill="#0072B2" stroke="#FFFFFF" stroke-width="1"/><circle cx="650.6377258899718" cy="39.733333333333405" r="3.4" fill="#0072B2" stroke="#FFFFFF" stroke-width="1"/><circle cx="549.6997313793981" cy="85.25333333333336" r="3.4" fill="#0072B2" stroke="#FFFFFF" stroke-width="1"/><circle cx="415.40746504334703" cy="148.82666666666668" r="3.4" fill="#0072B2" stroke="#FFFFFF" stroke-width="1"/><circle cx="325.44467875994917" cy="206.5866666666667" r="3.4" fill="#0072B2" stroke="#FFFFFF" stroke-width="1"/><circle cx="654.5263157894734" cy="34.666666666666686" r="3.4" fill="#0072B2" stroke="#FFFFFF" stroke-width="1"/><circle cx="654.2906394959437" cy="34.666666666666686" r="3.4" fill="#0072B2" stroke="#FFFFFF" stroke-width="1"/><circle cx="628.406050419797" cy="47.706666666666706" r="3.4" fill="#0072B2" stroke="#FFFFFF" stroke-width="1"/><circle cx="574.3621183005848" cy="76.21333333333334" r="3.4" fill="#0072B2" stroke="#FFFFFF" stroke-width="1"/><circle cx="573.3571300873314" cy="82.34666666666672" r="3.4" fill="#0072B2" stroke="#FFFFFF" stroke-width="1"/><circle cx="654.5263157894736" cy="34.666666666666686" r="3.4" fill="#0072B2" stroke="#FFFFFF" stroke-width="1"/><circle cx="654.5260602787097" cy="34.666666666666686" r="3.4" fill="#0072B2" stroke="#FFFFFF" stroke-width="1"/><circle cx="648.3369766976377" cy="38.10666666666674" r="3.4" fill="#0072B2" stroke="#FFFFFF" stroke-width="1"/><circle cx="598.7418765357301" cy="64.13333333333338" r="3.4" fill="#0072B2" stroke="#FFFFFF" stroke-width="1"/><circle cx="595.5534711292765" cy="73.25333333333339" r="3.4" fill="#0072B2" stroke="#FFFFFF" stroke-width="1"/><circle cx="654.5263157893612" cy="34.666666666666686" r="3.4" fill="#0072B2" stroke="#FFFFFF" stroke-width="1"/><circle cx="651.1033400036126" cy="37.200000000000045" r="3.4" fill="#0072B2" stroke="#FFFFFF" stroke-width="1"/><circle cx="579.4224424285491" cy="66.98666666666668" r="3.4" fill="#0072B2" stroke="#FFFFFF" stroke-width="1"/><circle cx="502.75264221830673" cy="105.44000000000005" r="3.4" fill="#0072B2" stroke="#FFFFFF" stroke-width="1"/><circle cx="475.0930412399953" cy="121.86666666666667" r="3.4" fill="#0072B2" stroke="#FFFFFF" stroke-width="1"/><circle cx="439.36702371256075" cy="140.13333333333333" r="3.4" fill="#0072B2" stroke="#FFFFFF" stroke-width="1"/><circle cx="654.5261794013707" cy="34.666666666666686" r="3.4" fill="#0072B2" stroke="#FFFFFF" stroke-width="1"/><circle cx="630.9366289247395" cy="42.079999999999984" r="3.4" fill="#0072B2" stroke="#FFFFFF" stroke-width="1"/><circle cx="542.1419574385156" cy="87.49333333333334" r="3.4" fill="#0072B2" stroke="#FFFFFF" stroke-width="1"/><circle cx="463.6540982627147" cy="126.1866666666667" r="3.4" fill="#0072B2" stroke="#FFFFFF" stroke-width="1"/><circle cx="442.75822301672673" cy="139.06666666666666" r="3.4" fill="#0072B2" stroke="#FFFFFF" stroke-width="1"/><circle cx="416.3358685838461" cy="152.56000000000003" r="3.4" fill="#0072B2" stroke="#FFFFFF" stroke-width="1"/><circle cx="654.5261860206192" cy="34.74666666666673" r="3.4" fill="#0072B2" stroke="#FFFFFF" stroke-width="1"/><circle cx="635.5537617611274" cy="43.06666666666672" r="3.4" fill="#0072B2" stroke="#FFFFFF" stroke-width="1"/><circle cx="517.0849928944202" cy="103.78666666666672" r="3.4" fill="#0072B2" stroke="#FFFFFF" stroke-width="1"/><circle cx="397.4270970032346" cy="155.9733333333334" r="3.4" fill="#0072B2" stroke="#FFFFFF" stroke-width="1"/><circle cx="349.264978497141" cy="181.8666666666667" r="3.4" fill="#0072B2" stroke="#FFFFFF" stroke-width="1"/><circle cx="310.652106198066" cy="206.85333333333335" r="3.4" fill="#0072B2" stroke="#FFFFFF" stroke-width="1"/><circle cx="654.5262993446087" cy="34.666666666666686" r="3.4" fill="#0072B2" stroke="#FFFFFF" stroke-width="1"/><circle cx="648.2361484366135" cy="37.57333333333332" r="3.4" fill="#0072B2" stroke="#FFFFFF" stroke-width="1"/><circle cx="575.4065699925935" cy="69.41333333333336" r="3.4" fill="#0072B2" stroke="#FFFFFF" stroke-width="1"/><circle cx="500.4389021108381" cy="107.92000000000002" r="3.4" fill="#0072B2" stroke="#FFFFFF" stroke-width="1"/><circle cx="479.55008642348594" cy="122.18666666666672" r="3.4" fill="#0072B2" stroke="#FFFFFF" stroke-width="1"/><circle cx="441.0174037051276" cy="143.14666666666673" r="3.4" fill="#0072B2" stroke="#FFFFFF" stroke-width="1"/><circle cx="654.5263082828274" cy="34.666666666666686" r="3.4" fill="#0072B2" stroke="#FFFFFF" stroke-width="1"/><circle cx="637.6762650912375" cy="41.25333333333339" r="3.4" fill="#0072B2" stroke="#FFFFFF" stroke-width="1"/><circle cx="542.1258992495304" cy="85.17333333333337" r="3.4" fill="#0072B2" stroke="#FFFFFF" stroke-width="1"/><circle cx="463.92114547900974" cy="121.94666666666666" r="3.4" fill="#0072B2" stroke="#FFFFFF" stroke-width="1"/><circle cx="457.9707924933437" cy="130" r="3.4" fill="#0072B2" stroke="#FFFFFF" stroke-width="1"/><circle cx="426.31037912161423" cy="150.1866666666667" r="3.4" fill="#0072B2" stroke="#FFFFFF" stroke-width="1"/></g><g><circle cx="82" cy="38" r="3.4" fill="#0072B2"/><text x="92" y="42" text-anchor="start" style="font: 11px &quot;JetBrains Mono&quot;, ui-monospace, monospace; fill: rgb(0, 114, 178);">learned</text></g><g><circle cx="82" cy="58" r="3" fill="#CC79A7"/><text x="92" y="62" text-anchor="start" style="font: 11px &quot;JetBrains Mono&quot;, ui-monospace, monospace; fill: rgb(204, 121, 167);">PDB</text></g><g><circle cx="82" cy="78" r="2.6" fill="#D8DCE3"/><text x="92" y="82" text-anchor="start" style="font: 11px &quot;JetBrains Mono&quot;, ui-monospace, monospace; fill: rgb(216, 220, 227);">random</text></g><text x="246.52631578947364" y="285.3333333333333" text-anchor="start" style="font: 11px &quot;JetBrains Mono&quot;, ui-monospace, monospace; fill: rgb(17, 19, 24);">252 shells, split-sample mean |error| 0.0117</text><text x="246.52631578947364" y="306.6666666666667" text-anchor="start" style="font: 11px &quot;JetBrains Mono&quot;, ui-monospace, monospace; fill: rgb(213, 94, 0);">estimator's own noise floor: 0.0018</text></g></svg>
